<svg width="73" height="17" viewBox="0 0 73 17" fill="none" xmlns="http://www.w3.org/2000/svg">
<path d="M9 13.01H4.94L4.21 16H0.78L5.02 2.14H9L13.24 16H9.73L9 13.01ZM5.46 10.63H8.46L6.96 4.5L5.46 10.63ZM24.4722 5.38L20.9822 10.08L24.7622 16H21.1622L17.6722 10.18L21.1622 5.38H24.4722ZM17.5522 0.829999V16H14.3922V1.16L17.5522 0.829999ZM35.3244 12.94C35.3244 13.34 35.3777 13.63 35.4844 13.81C35.5977 13.99 35.7777 14.1267 36.0244 14.22L35.3744 16.3C34.7477 16.24 34.2177 16.1033 33.7844 15.89C33.3577 15.67 33.021 15.34 32.7744 14.9C32.3677 15.3867 31.8477 15.75 31.2144 15.99C30.581 16.2233 29.9344 16.34 29.2744 16.34C28.181 16.34 27.3077 16.03 26.6544 15.41C26.0077 14.7833 25.6844 13.98 25.6844 13C25.6844 11.8467 26.1344 10.9567 27.0344 10.33C27.941 9.70333 29.2144 9.39 30.8544 9.39H32.2844V8.99C32.2844 8.43667 32.1044 8.02667 31.7444 7.76C31.391 7.49333 30.871 7.36 30.1844 7.36C29.8444 7.36 29.4077 7.41 28.8744 7.51C28.341 7.60333 27.8077 7.74 27.2744 7.92L26.5444 5.82C27.231 5.56 27.9444 5.36333 28.6844 5.23C29.431 5.09667 30.0977 5.03 30.6844 5.03C32.2644 5.03 33.431 5.35333 34.1844 6C34.9444 6.64 35.3244 7.56667 35.3244 8.78V12.94ZM30.3644 14.08C30.7044 14.08 31.061 13.98 31.4344 13.78C31.8077 13.5733 32.091 13.2833 32.2844 12.91V11.19H31.5044C30.6244 11.19 29.9777 11.3267 29.5644 11.6C29.151 11.8667 28.9444 12.26 28.9444 12.78C28.9444 13.1867 29.0677 13.5067 29.3144 13.74C29.5677 13.9667 29.9177 14.08 30.3644 14.08ZM45.0666 9C45.0666 8.06667 44.9866 7.30667 44.8266 6.72C44.6732 6.13333 44.4566 5.68 44.1766 5.36C43.9032 5.04 43.5799 4.82 43.2066 4.7C42.8332 4.58 42.4299 4.52 41.9966 4.52H41.2966V13.63H41.9966C42.4499 13.63 42.8632 13.56 43.2366 13.42C43.6166 13.2733 43.9432 13.03 44.2166 12.69C44.4899 12.3433 44.6999 11.87 44.8466 11.27C44.9932 10.67 45.0666 9.91333 45.0666 9ZM48.4666 9C48.4666 10.1267 48.3466 11.0933 48.1066 11.9C47.8666 12.7 47.5299 13.3667 47.0966 13.9C46.6699 14.4333 46.1732 14.8533 45.6066 15.16C45.0399 15.4667 44.4299 15.6833 43.7766 15.81C43.1232 15.9367 42.4499 16 41.7566 16H38.0166V2.14H41.5166C42.4032 2.14 43.2599 2.23333 44.0866 2.42C44.9199 2.6 45.6632 2.93667 46.3166 3.43C46.9766 3.91667 47.4999 4.61 47.8866 5.51C48.2732 6.40333 48.4666 7.56667 48.4666 9ZM53.1088 11.61C53.1821 12.19 53.3321 12.66 53.5588 13.02C53.7921 13.3733 54.0888 13.6333 54.4488 13.8C54.8088 13.96 55.2121 14.04 55.6588 14.04C56.1454 14.04 56.6154 13.96 57.0688 13.8C57.5221 13.64 57.9588 13.4267 58.3788 13.16L59.6488 14.88C59.1488 15.3067 58.5421 15.6567 57.8288 15.93C57.1221 16.2033 56.3154 16.34 55.4088 16.34C54.1954 16.34 53.1788 16.1 52.3588 15.62C51.5388 15.1333 50.9221 14.4667 50.5088 13.62C50.0954 12.7733 49.8888 11.8 49.8888 10.7C49.8888 9.65333 50.0888 8.70333 50.4888 7.85C50.8888 6.99 51.4721 6.30667 52.2388 5.8C53.0121 5.28667 53.9554 5.03 55.0688 5.03C56.0821 5.03 56.9588 5.24667 57.6988 5.68C58.4454 6.11333 59.0221 6.73667 59.4288 7.55C59.8421 8.36333 60.0488 9.34 60.0488 10.48C60.0488 10.66 60.0421 10.8533 60.0288 11.06C60.0221 11.2667 60.0088 11.45 59.9887 11.61H53.1088ZM55.0688 7.15C54.5021 7.15 54.0454 7.35333 53.6988 7.76C53.3521 8.16667 53.1421 8.81667 53.0688 9.71H56.9688C56.9621 8.93667 56.8121 8.31667 56.5188 7.85C56.2254 7.38333 55.7421 7.15 55.0688 7.15ZM72.3809 5.38L68.8409 16H65.1209L61.5409 5.38H64.9509L67.0209 13.58L69.1809 5.38H72.3809Z" fill="white"/>
</svg>
